<?xml version="1.0" encoding="iso-8859-1"?>
<!-- Generator: Adobe Illustrator 19.0.0, SVG Export Plug-In . SVG Version: 6.00 Build 0)  -->
<svg version="1.1" id="Layer_1" xmlns="http://www.w3.org/2000/svg" xmlns:xlink="http://www.w3.org/1999/xlink" x="0px" y="0px"
	 viewBox="0 0 486.38 486.38" style="enable-background:new 0 0 486.38 486.38;" xml:space="preserve">
<g>
	<path style="fill:#D71920;" d="M9.539,292.679c1.65,35.981,105.621,65.008,233.661,65.008s232.011-29.026,233.661-65.008
		c-32.595,14.22-124.887,24.474-233.661,24.474S42.134,306.899,9.539,292.679z"/>
	<g>
		<path style="fill:#3B4D81;" d="M384.358,239.311c0,0.073,0.003,0.145,0.003,0.218H102.039c0-0.073,0.003-0.145,0.003-0.218
			C45.818,251.341,9.5,270.38,9.5,291.812c0,0.29,0.026,0.578,0.039,0.867c32.595,14.22,124.887,24.474,233.661,24.474
			s201.066-10.254,233.661-24.474c0.013-0.289,0.039-0.577,0.039-0.867C476.9,270.38,440.583,251.341,384.358,239.311z"/>
		<path style="fill:#D7E1F2;" d="M384.358,239.311c-0.118-77.86-63.27-140.943-141.158-140.943S102.16,161.45,102.042,239.311
			c0,0.073-0.003,0.145-0.003,0.218h282.322C384.361,239.457,384.359,239.384,384.358,239.311z"/>
	</g>
	<path d="M410.4,235.911c-5.38-1.505-10.968-2.929-16.745-4.27C389.538,152.218,323.629,88.869,243.2,88.869
		S96.862,152.218,92.745,231.64c-6.002,1.393-11.8,2.876-17.373,4.447c-19.482,5.491-39.746,12.431-56.177,24.616
		C9.186,268.126-0.044,278.651,0,291.811c0.044,13.357,9.439,23.938,19.647,31.413c16.65,12.192,37.101,19.123,56.777,24.603
		c2.722,0.758,5.5,1.495,8.326,2.211l-28.472,28.471h-28.48c-5.247,0-9.5,4.253-9.5,9.5s4.253,9.5,9.5,9.5h64.83
		c5.247,0,9.5-4.253,9.5-9.5s-4.253-9.5-9.5-9.5h-9.48l23.533-23.533c39.767,7.931,87.053,12.21,136.518,12.21
		c50.551,0,98.827-4.469,139.127-12.737l24.061,24.061h-9.479c-5.247,0-9.5,4.253-9.5,9.5s4.253,9.5,9.5,9.5h64.829
		c5.247,0,9.5-4.253,9.5-9.5s-4.253-9.5-9.5-9.5h-28.479l-29.117-29.117c1.967-0.513,3.918-1.032,5.834-1.566
		c48.933-13.629,75.341-32.541,76.373-54.692C487.872,260.019,433.699,242.466,410.4,235.911
		C405.021,234.405,419.994,238.61,410.4,235.911C405.021,234.405,419.994,238.61,410.4,235.911z M243.2,107.869
		c68.574,0,125.065,52.7,131.118,119.725c0.073,0.811,0.146,1.621,0.204,2.436H111.878c0.058-0.815,0.131-1.625,0.204-2.436
		C118.135,160.569,174.626,107.869,243.2,107.869z M452.928,309.827c-9.895,6.513-25.391,13.386-48.05,19.697
		c-43.211,12.035-100.629,18.663-161.678,18.663s-118.467-6.628-161.678-18.663c-22.659-6.31-38.155-13.184-48.05-19.697
		l-0.002-0.003c45.607,10.332,123.839,16.828,209.73,16.828s164.123-6.496,209.73-16.828L452.928,309.827z M243.2,307.653
		c-96.59,0-185.449-8.501-222.772-20.99c4.816-9.213,22.319-21.638,60.099-32.288c6.811-1.92,13.979-3.703,21.463-5.347
		c0.017,0,0.033,0.002,0.049,0.002h282.323c0.017,0,0.033-0.002,0.05-0.002c7.483,1.644,14.652,3.427,21.463,5.347
		c37.779,10.649,55.282,23.075,60.098,32.288C428.65,299.151,339.79,307.653,243.2,307.653z"/>
	<g>
		<path d="M150.445,214.526c-0.994,0-2.003-0.157-2.998-0.488c-4.979-1.655-7.673-7.033-6.018-12.011
			c8.881-26.718,28.395-49.394,53.54-62.213c4.674-2.382,10.395-0.526,12.779,4.149c2.383,4.674,0.526,10.395-4.149,12.779
			c-20.733,10.57-36.82,29.26-44.14,51.279C158.134,212.004,154.425,214.526,150.445,214.526z"/>
	</g>
	<g>
		<path d="M285.013,156.005c-1.325,0-2.67-0.278-3.954-0.867c-11.661-5.347-24.135-8.058-37.075-8.058c-5.247,0-9.5-4.253-9.5-9.5
			s4.253-9.5,9.5-9.5c15.693,0,30.83,3.293,44.994,9.788c4.77,2.187,6.863,7.826,4.676,12.595
			C292.056,153.949,288.612,156.005,285.013,156.005z"/>
	</g>
</g>
<g>
</g>
<g>
</g>
<g>
</g>
<g>
</g>
<g>
</g>
<g>
</g>
<g>
</g>
<g>
</g>
<g>
</g>
<g>
</g>
<g>
</g>
<g>
</g>
<g>
</g>
<g>
</g>
<g>
</g>
</svg>
